<svg xmlns="http://www.w3.org/2000/svg" viewBox="0 0 100 100" width="100" height="100">
  <defs>
    <linearGradient id="g" x1="0%" y1="0%" x2="100%" y2="100%">
      <stop offset="0%" stop-color="#00E5FF">
        <animate attributeName="stop-color" values="#00E5FF;#7C4DFF;#00E5FF" dur="6s" repeatCount="indefinite"/>
      </stop>
      <stop offset="100%" stop-color="#7C4DFF">
        <animate attributeName="stop-color" values="#7C4DFF;#00E5FF;#7C4DFF" dur="6s" repeatCount="indefinite"/>
      </stop>
    </linearGradient>
  </defs>
  <rect width="100" height="100" rx="22" fill="#0a0a0f"/>
  <!-- Brain vector paths -->
  <g fill="none" stroke="url(#g)" stroke-width="2.5" stroke-linecap="round" stroke-linejoin="round">
    <path d="M 50 18 C 35 18, 22 28, 22 42 C 22 50, 26 54, 26 56 C 25 58, 24 62, 24 64 C 24 70, 28 76, 34 76 C 36 76, 38 75, 40 74 C 42 78, 46 80, 50 80"/>
    <path d="M 50 18 C 65 18, 78 28, 78 42 C 78 50, 74 54, 74 56 C 75 58, 76 62, 76 64 C 76 70, 72 76, 66 76 C 64 76, 62 75, 60 74 C 58 78, 54 80, 50 80"/>
    <path d="M 50 22 C 48 35, 52 48, 50 68" stroke-width="2" opacity="0.6"/>
    <path d="M 26 42 C 30 40, 32 44, 30 46" stroke-width="1.5" opacity="0.7"/>
    <path d="M 74 42 C 70 40, 68 44, 70 46" stroke-width="1.5" opacity="0.7"/>
  </g>
  <!-- Synapse dots -->
  <circle cx="30" cy="36" r="2" fill="#00E5FF">
    <animate attributeName="opacity" values="1;0.3;1" dur="2.5s" repeatCount="indefinite"/>
  </circle>
  <circle cx="70" cy="36" r="2" fill="#7C4DFF">
    <animate attributeName="opacity" values="0.3;1;0.3" dur="2.5s" repeatCount="indefinite"/>
  </circle>
</svg>